<svg fill="none" height="960" viewBox="0 0 960 960" width="960" xmlns="http://www.w3.org/2000/svg">
    <rect fill="white" height="960" width="960" />
    <rect fill="white" height="640" rx="320" width="640" x="160" y="160" />
    <g clip-path="url(#clip0_2002_164)">
        <path clip-rule="evenodd" d="M473.866 229.205C476.548 229.205 479.228 229.205 481.91 229.205C497.831 235.439 502.389 246.567 495.585 262.589C487.684 270.294 478.3 273.209 467.431 271.333C413.579 322.954 360.219 375.15 307.35 427.921C306.01 467.144 306.278 506.358 308.155 545.56C320.606 553.428 323.555 564.027 317.003 577.355C310.343 584.844 302.031 587.229 292.066 584.509C286.498 582.434 282.207 578.991 279.196 574.175C279.196 568.346 279.196 562.518 279.196 556.688C282.373 552.228 286.395 548.519 291.262 545.56C291.798 503.167 292.334 460.776 292.871 418.382C347.572 365.392 402.272 312.401 456.973 259.41C455.371 252.966 455.908 246.607 458.582 240.333C462.651 234.952 467.746 231.243 473.866 229.205ZM475.475 245.102C484.703 247.81 485.241 251.519 477.084 256.23C471.4 253.178 470.862 249.469 475.475 245.102ZM296.893 559.868C306.276 561.963 307.081 565.672 299.306 570.996C293.468 568.034 292.664 564.325 296.893 559.868Z" fill="#1C65AE"
            fill-rule="evenodd"
            opacity="0.917" />
        <path clip-rule="evenodd" d="M514.087 270.538C537.164 268.169 546.549 278.237 542.242 300.743C583.047 340.535 624.341 379.748 666.123 418.382C666.392 442.775 667.196 467.152 668.536 491.51C682.781 502.813 683.317 514.736 670.145 527.279C657.192 533.195 646.735 530.282 638.773 518.535C634.878 505.857 638.631 496.319 650.035 489.92C651.108 468.724 651.108 447.527 650.035 426.331C610.082 387.913 570.128 349.494 530.176 311.076C509.975 313.679 500.589 304.936 502.021 284.845C503.811 278.064 507.834 273.295 514.087 270.538ZM520.523 284.845C528.084 287.689 528.621 291.399 522.131 295.974C516.447 292.921 515.91 289.212 520.523 284.845ZM655.666 504.228C664.637 505.905 665.71 509.615 658.883 515.356C652.425 512.807 651.354 509.097 655.666 504.228Z" fill="#1C65AE"
            fill-rule="evenodd"
            opacity="0.905" />
        <path clip-rule="evenodd" d="M477.084 330.947C485.493 328.94 490.051 332.119 490.759 340.486C527.182 374.885 563.112 409.858 598.552 445.408C599.356 486.737 599.625 528.07 599.356 569.406C583.258 569.142 567.169 569.406 551.091 570.201C542.717 576.614 537.353 574.759 535.002 564.637C536.117 557.243 540.406 554.859 547.873 557.483C548.946 558.544 550.017 559.602 551.091 560.663C563.95 561.458 576.821 561.721 589.703 561.458C589.972 523.83 589.703 486.206 588.898 448.587C554.353 416.044 520.3 382.924 486.737 349.229C473.885 347.785 470.668 341.691 477.084 330.947Z" fill="black"
            fill-rule="evenodd"
            opacity="0.835" />
        <path clip-rule="evenodd" d="M404.686 389.767C415.937 387.376 420.495 391.616 418.361 402.485C414.693 404.929 410.671 406.782 406.294 408.049C392.619 421.562 378.944 435.074 365.269 448.587C364.196 503.698 364.196 558.808 365.269 613.919C370.996 625.614 367.51 630.647 354.811 629.021C350.804 624.303 350.536 619.268 354.007 613.919C354.543 557.749 355.08 501.577 355.616 445.408C370.632 430.571 385.648 415.732 400.663 400.895C401.274 396.873 402.614 393.165 404.686 389.767Z" fill="black"
            fill-rule="evenodd"
            opacity="0.821" />
        <path clip-rule="evenodd" d="M420.774 443.818C446.773 447.05 473.052 447.845 499.608 446.203C511.444 440.543 516.537 443.988 514.892 456.536C510.115 462.526 505.02 462.791 499.608 457.331C477.619 456.27 455.633 456.27 433.645 457.331C428.232 462.791 423.137 462.526 418.361 456.536C416.928 451.77 417.732 447.532 420.774 443.818Z" fill="#1C65AE"
            fill-rule="evenodd"
            opacity="0.819" />
        <path clip-rule="evenodd" d="M414.339 505.817C426.389 504.723 429.875 509.493 424.796 520.125C423.724 569.936 423.724 619.748 424.796 669.559C427.274 673.462 427.81 677.7 426.405 682.277C418.318 687.518 413.223 685.663 411.121 676.713C411.046 673.966 411.851 671.581 413.534 669.559C414.607 619.748 414.607 569.936 413.534 520.125C410.261 515.157 410.529 510.388 414.339 505.817Z" fill="#1C65AE"
            fill-rule="evenodd"
            opacity="0.818" />
        <path clip-rule="evenodd" d="M654.057 543.971C668.953 543.362 677.533 550.25 679.798 564.637C679.348 572.953 675.594 579.312 668.536 583.714C666.928 620.262 666.392 656.825 666.928 693.405C629.908 692.875 592.905 693.405 555.917 694.994C546.375 707.164 535.113 709.019 522.131 700.559C512.301 686.771 514.446 675.113 528.567 665.585C540.627 662.067 549.742 665.51 555.917 675.918C587.539 677.508 619.18 678.037 650.839 677.508C651.375 646.225 650.839 614.96 649.23 583.714C641.363 579.835 637.608 573.476 637.968 564.637C638.52 554.03 643.882 547.142 654.057 543.971ZM655.666 559.868C665.048 561.963 665.853 565.672 658.079 570.996C652.097 568.107 651.293 564.399 655.666 559.868ZM536.611 679.097C544.667 682.485 544.935 686.194 537.415 690.225C530.267 686.838 529.999 683.129 536.611 679.097Z" fill="black"
            fill-rule="evenodd"
            opacity="0.904" />
        <path clip-rule="evenodd" d="M279.196 636.175C279.196 630.345 279.196 624.517 279.196 618.688C292.352 601.899 305.491 601.899 318.612 618.688C322.788 631.207 319.034 640.745 307.35 647.303C306.547 657.358 306.279 667.425 306.546 677.508C317.859 678.032 329.121 677.503 340.332 675.918C346.506 665.51 355.623 662.067 367.682 665.585C381.16 673.385 384.11 684.248 376.531 698.174C362.987 709.587 350.921 708.262 340.332 694.2C324.252 693.405 308.164 693.141 292.066 693.405C292.334 678.029 292.066 662.661 291.262 647.303C286.395 644.344 282.373 640.635 279.196 636.175ZM296.893 621.867C305.864 623.544 306.937 627.255 300.111 632.995C293.653 630.447 292.581 626.736 296.893 621.867ZM358.029 679.097C365.591 681.941 366.127 685.65 359.638 690.225C353.789 687.329 353.253 683.618 358.029 679.097Z" fill="#1C65AE"
            fill-rule="evenodd"
            opacity="0.917" />
        <path clip-rule="evenodd" d="M536.611 612.329C539.705 612.798 542.387 614.122 544.655 616.303C559.671 617.364 574.688 617.364 589.703 616.303C597.443 610.993 602.807 612.849 605.791 621.867C602.593 629.898 597.229 631.754 589.703 627.431C572.239 625.737 555.077 626.531 538.22 629.816C532.47 629.697 529.788 626.783 530.176 621.072C529.664 616.038 531.809 613.124 536.611 612.329Z" fill="#1C65AE"
            fill-rule="evenodd"
            opacity="0.84" />
    </g>
    <defs>
        <clipPath id="clip0_2002_164">
            <rect fill="white" height="499.174" transform="translate(280 230)" width="400" />
        </clipPath>
    </defs>
</svg>
